<svg version="1.1" id="Layer_1" xmlns="http://www.w3.org/2000/svg" xmlns:xlink="http://www.w3.org/1999/xlink" x="0px" y="0px"
	 width="100%" viewBox="0 0 472 468" enable-background="new 0 0 472 468" xml:space="preserve">
<path fill="#1E7240" opacity="1.000000" stroke="none" 
	d="
M1.000000,124.000000 
	C1.000000,82.666664 1.000000,41.833332 1.000000,1.000000 
	C158.333328,1.000000 315.666656,1.000000 473.000000,1.000000 
	C473.000000,157.000000 473.000000,313.000000 473.000000,469.000000 
	C315.666656,469.000000 158.333328,469.000000 1.000000,469.000000 
	C1.000000,354.166656 1.000000,239.333328 1.000000,124.000000 
M449.098267,29.022274 
	C310.388611,29.015158 171.678955,29.006910 32.969303,29.008467 
	C29.976559,29.008501 26.983814,29.121012 23.476580,29.102974 
	C23.378605,29.396770 23.280630,29.690569 23.027370,30.903059 
	C23.018139,165.937164 23.008490,300.971252 23.007772,436.005371 
	C23.007767,436.999390 23.130138,437.993408 23.432287,439.787201 
	C26.278370,439.800690 29.124454,439.814178 32.891262,439.983032 
	C165.599243,439.989838 298.307251,439.997009 431.015228,439.996368 
	C432.010132,439.996338 433.005066,439.889404 434.911316,439.992401 
	C438.942352,439.934784 442.973358,439.877197 447.662720,439.966278 
	C448.106750,439.915863 448.550781,439.865479 449.732880,439.957764 
	C450.094849,438.979156 450.456818,438.000549 450.976440,436.102661 
	C450.985077,301.727722 450.994110,167.352753 450.994720,32.977810 
	C450.994720,31.983376 450.879181,30.988943 450.899811,29.478823 
	C450.605469,29.379148 450.311127,29.279474 449.098267,29.022274 
z"/>
<path fill="#FAFFFD" opacity="1.000000" stroke="none" 
	d="
M23.991070,29.181053 
	C26.983814,29.121012 29.976559,29.008501 32.969303,29.008467 
	C171.678955,29.006910 310.388611,29.015158 449.669495,29.256893 
	C450.407410,29.688538 450.599701,29.856203 450.817596,29.994509 
	C450.879181,30.988943 450.994720,31.983376 450.994720,32.977810 
	C450.994110,167.352753 450.985077,301.727722 450.661102,436.728760 
	C449.895447,438.174896 449.445129,438.994995 448.994812,439.815094 
	C448.550781,439.865479 448.106750,439.915863 447.333008,439.498962 
	C446.977722,437.981262 446.952179,436.930817 446.951721,435.419067 
	C446.976868,301.063110 446.976868,167.168533 446.976868,33.322029 
	C306.667206,33.322029 166.965363,33.322029 27.334667,33.322029 
	C27.334667,167.683289 27.334667,301.720551 27.334667,436.001556 
	C29.148037,436.001556 30.628633,436.001556 32.109230,436.001526 
	C164.076843,436.000061 296.044464,435.997833 428.012085,436.004333 
	C430.007416,436.004425 432.002777,436.112396 433.997559,436.536194 
	C433.997986,437.879059 433.998962,438.855713 433.999969,439.832367 
	C433.005066,439.889404 432.010132,439.996338 431.015228,439.996368 
	C298.307251,439.997009 165.599243,439.989838 32.095093,439.708252 
	C28.597740,439.284790 25.896555,439.136108 23.195370,438.987427 
	C23.130138,437.993408 23.007767,436.999390 23.007772,436.005371 
	C23.008490,300.971252 23.018139,165.937164 23.259775,30.331003 
	C23.687992,29.591797 23.854288,29.399166 23.991070,29.181053 
z"/>
<path fill="#F1FFFB" opacity="1.000000" stroke="none" 
	d="
M434.455627,439.912384 
	C433.998962,438.855713 433.997986,437.879059 434.454041,436.456085 
	C438.916260,435.966644 442.921448,435.923523 446.926605,435.880432 
	C446.952179,436.930817 446.977722,437.981262 447.003845,439.425659 
	C442.973358,439.877197 438.942352,439.934784 434.455627,439.912384 
z"/>
<path fill="#F1FFFB" opacity="1.000000" stroke="none" 
	d="
M23.313828,439.387329 
	C25.896555,439.136108 28.597740,439.284790 31.634731,439.630554 
	C29.124454,439.814178 26.278370,439.800690 23.313828,439.387329 
z"/>
<path fill="#F1FFFB" opacity="1.000000" stroke="none" 
	d="
M449.363831,439.886414 
	C449.445129,438.994995 449.895447,438.174896 450.582275,437.188385 
	C450.456818,438.000549 450.094849,438.979156 449.363831,439.886414 
z"/>
<path fill="#F1FFFB" opacity="1.000000" stroke="none" 
	d="
M450.858704,29.736666 
	C450.599701,29.856203 450.407410,29.688538 450.128723,29.335655 
	C450.311127,29.279474 450.605469,29.379148 450.858704,29.736666 
z"/>
<path fill="#F1FFFB" opacity="1.000000" stroke="none" 
	d="
M23.733826,29.142014 
	C23.854288,29.399166 23.687992,29.591797 23.337418,29.871656 
	C23.280630,29.690569 23.378605,29.396770 23.733826,29.142014 
z"/>
<path fill="#1E7240" opacity="1.000000" stroke="none" 
	d="
M446.951721,435.419067 
	C442.921448,435.923523 438.916260,435.966644 434.454590,436.089874 
	C432.002777,436.112396 430.007416,436.004425 428.012085,436.004333 
	C296.044464,435.997833 164.076843,436.000061 32.109230,436.001526 
	C30.628633,436.001556 29.148037,436.001556 27.334667,436.001556 
	C27.334667,301.720551 27.334667,167.683289 27.334667,33.322029 
	C166.965363,33.322029 306.667206,33.322029 446.976868,33.322029 
	C446.976868,167.168533 446.976868,301.063110 446.951721,435.419067 
M98.820053,136.887970 
	C99.303642,129.545700 99.360909,122.366531 95.197601,115.720543 
	C89.282524,106.278130 74.848679,104.624641 67.730339,113.186356 
	C60.878338,121.427742 60.291729,131.075684 63.689663,140.887878 
	C66.878418,150.096024 73.589577,154.299622 83.293739,152.929169 
	C86.536362,160.880066 88.644791,161.961273 97.764862,160.439941 
	C97.764862,157.886337 97.764862,155.300201 97.764862,153.293289 
	C95.103867,152.753357 92.779930,152.281830 91.185768,151.958359 
	C93.951614,146.687164 96.300674,142.210266 98.820053,136.887970 
M227.000397,127.500702 
	C227.000397,135.588440 227.000397,143.676178 227.000397,151.648651 
	C230.680313,151.648651 233.735977,151.648651 237.255539,151.648651 
	C237.255539,146.232376 237.255539,141.167435 237.255539,136.409256 
	C242.574341,134.809952 245.300064,136.741837 246.214035,141.574036 
	C246.365433,142.374435 246.797165,143.122452 247.104370,143.892654 
	C250.600296,152.657578 250.600616,152.658188 260.195892,151.806915 
	C260.338196,151.794281 260.471466,151.679840 260.891174,151.475525 
	C259.209930,146.886963 257.653839,142.208893 255.771011,137.666260 
	C254.676956,135.026672 254.699356,133.426453 257.269379,131.392960 
	C261.691193,127.894264 261.809570,122.705200 260.465729,117.700226 
	C259.205902,113.008148 255.888931,109.598381 251.017227,109.307129 
	C243.130142,108.835609 235.194275,109.180206 226.999924,109.180206 
	C226.999924,115.239288 226.999924,120.870346 227.000397,127.500702 
M220.952301,126.862823 
	C219.436768,117.416374 213.308426,110.087784 205.182144,109.303253 
	C198.637711,108.671440 191.983658,109.175331 185.283051,109.175331 
	C185.283051,123.567657 185.283051,137.620895 185.283051,151.640503 
	C210.770966,154.279663 221.200333,148.557190 220.952301,126.862823 
M315.304169,127.058655 
	C313.401093,120.992676 311.498016,114.926689 309.696899,109.185684 
	C305.098358,109.185684 301.292633,109.185684 297.366333,109.185684 
	C292.872284,123.399330 288.424164,137.467667 283.889587,151.809387 
	C287.179352,151.809387 289.801788,151.809387 292.520203,151.809387 
	C293.537750,148.767197 294.503876,145.878754 295.461121,143.016800 
	C298.518799,143.016800 301.218933,143.312943 303.827698,142.950806 
	C308.296417,142.330521 310.569946,143.904037 311.279083,148.452347 
	C311.483856,149.765762 313.179016,151.588287 314.454193,151.839203 
	C317.121063,152.363968 319.963135,151.998215 323.131165,151.998215 
	C320.531586,143.530289 318.111603,135.647369 315.304169,127.058655 
M233.139786,190.549713 
	C230.424347,199.199463 227.708908,207.849228 224.979980,216.542007 
	C232.702072,217.611023 232.702072,217.611023 236.573105,208.286057 
	C241.041122,208.286057 245.817398,207.351120 249.847275,208.679901 
	C251.866745,209.345779 252.526001,214.136841 253.620529,216.649261 
	C257.350586,216.649261 260.568115,216.649261 264.107391,216.649261 
	C259.523010,202.116150 255.076965,188.021591 250.706833,174.167633 
	C246.190369,174.167633 242.382767,174.167633 238.464035,174.167633 
	C236.714264,179.449829 235.005539,184.608139 233.139786,190.549713 
M114.202560,174.090652 
	C113.856934,174.396317 113.315384,174.638992 113.193985,175.016708 
	C108.753914,188.831696 104.352859,202.659225 99.928177,216.542358 
	C107.730751,217.595612 107.730751,217.595612 111.676216,208.017563 
	C114.222565,208.017563 116.900513,207.783676 119.515442,208.089172 
	C121.735458,208.348557 124.596268,208.584244 125.880180,210.001831 
	C127.456512,211.742310 127.688530,214.700348 128.344391,216.661713 
	C132.336685,216.661713 135.561172,216.661713 139.080093,216.661713 
	C135.605194,205.547989 132.269455,194.842468 128.909668,184.144501 
	C125.705475,173.941986 125.694450,173.945450 114.202560,174.090652 
M169.825623,115.566925 
	C167.276871,108.012680 166.802811,107.811020 155.284897,109.440720 
	C150.863983,123.401497 146.429367,137.405548 141.887253,151.749054 
	C145.006485,151.749054 147.757828,151.749054 150.596252,151.749054 
	C151.532196,148.831146 152.427872,146.038818 153.376373,143.081772 
	C160.676804,143.383316 169.811890,139.512299 170.332764,151.698242 
	C174.267868,151.698242 177.509644,151.698242 181.077621,151.698242 
	C177.918015,141.555084 174.882965,131.794220 171.833633,122.037811 
	C171.239395,120.136536 170.589600,118.252625 169.825623,115.566925 
M62.005424,198.261765 
	C62.846180,211.647705 71.224716,219.109375 84.133446,217.968323 
	C92.660942,217.214554 99.078262,209.921158 98.546837,201.456131 
	C93.977722,200.753052 89.597565,199.611725 87.740807,206.188156 
	C87.253746,207.913284 83.477646,209.859314 81.378990,209.685684 
	C78.819862,209.473953 75.247253,207.719727 74.201454,205.601532 
	C71.094589,199.308655 70.868362,192.294693 74.107239,185.987198 
	C75.279060,183.705200 78.765984,181.613205 81.399681,181.331070 
	C84.764511,180.970596 87.574295,183.330658 88.237633,187.245071 
	C88.448593,188.489975 88.957527,189.684387 89.247574,190.632172 
	C92.605522,190.632172 95.551155,190.632172 98.475105,190.632172 
	C99.117279,175.698013 86.385986,170.127258 74.752289,173.977448 
	C65.756706,176.954559 61.986042,184.309677 62.005424,198.261765 
M104.986366,132.463364 
	C104.994576,134.629242 104.955177,136.796539 105.019653,138.960739 
	C105.239326,146.334656 108.847847,150.913086 115.753876,152.645584 
	C124.199280,154.764297 134.004913,152.141266 137.127289,146.786484 
	C137.944977,145.384155 138.743561,143.706787 138.763596,142.145630 
	C138.903992,131.206573 138.837952,120.264854 138.837952,109.315819 
	C136.051361,109.315819 133.661423,109.315819 130.989075,109.315819 
	C130.989075,118.441551 131.055679,127.250732 130.954880,136.057983 
	C130.916809,139.385086 130.702789,142.706589 126.719604,144.196915 
	C120.075813,146.682709 115.144073,143.479507 115.040741,136.222107 
	C114.913361,127.276321 115.010307,118.327347 115.010307,109.282845 
	C111.433182,109.282845 108.375130,109.282845 104.988068,109.282845 
	C104.988068,116.870064 104.988068,124.172424 104.986366,132.463364 
M162.271500,201.009827 
	C170.231628,200.707138 175.406769,196.321457 175.962540,189.407349 
	C176.575104,181.786697 172.577042,174.978424 166.062149,174.398758 
	C158.529419,173.728516 150.891296,174.242813 143.324982,174.242813 
	C143.324982,188.680817 143.324982,202.742218 143.324982,216.628754 
	C146.730255,216.628754 149.791611,216.628754 153.159241,216.628754 
	C153.159241,211.310333 153.159241,206.364731 153.159241,201.010361 
	C156.091476,201.010361 158.717926,201.010361 162.271500,201.009827 
M207.999023,196.505356 
	C207.999023,203.254196 207.999023,210.003021 207.999023,216.646286 
	C211.701797,216.646286 214.753967,216.646286 218.248856,216.646286 
	C218.248856,204.917618 218.248856,193.541122 218.248856,181.702911 
	C222.103043,181.702911 225.494751,181.702911 228.765427,181.702911 
	C228.765427,178.949890 228.765427,176.678635 228.765427,174.247772 
	C218.146729,174.247772 207.769394,174.247772 197.277039,174.247772 
	C197.277039,176.890213 197.277039,179.277634 197.277039,182.141037 
	C200.940918,182.141037 204.338791,182.141037 207.999390,182.141037 
	C207.999390,186.917236 207.999390,191.213165 207.999023,196.505356 
M268.002716,207.460144 
	C268.002716,210.556946 268.002716,213.653732 268.002716,216.669281 
	C277.364838,216.669281 286.090057,216.669281 294.810272,216.669281 
	C294.810272,214.055496 294.810272,211.776764 294.810272,209.015915 
	C289.238892,209.015915 283.832428,209.015915 277.962524,209.015915 
	C277.962524,197.157135 277.962524,185.771820 277.962524,174.307434 
	C274.418030,174.307434 271.366211,174.307434 268.003479,174.307434 
	C268.003479,185.232529 268.003479,195.852478 268.002716,207.460144 
M278.997314,138.490509 
	C278.997314,128.763153 278.997314,119.035797 278.997314,109.311127 
	C275.367126,109.311127 272.316864,109.311127 269.285034,109.311127 
	C269.285034,123.637779 269.285034,137.653290 269.285034,151.677979 
	C272.625854,151.677979 275.672424,151.677979 278.997406,151.677979 
	C278.997406,147.402817 278.997406,143.444687 278.997314,138.490509 
M181.997314,210.408783 
	C181.997314,212.505814 181.997314,214.602844 181.997314,216.680771 
	C185.644119,216.680771 188.696121,216.680771 191.709839,216.680771 
	C191.709839,202.337769 191.709839,188.318314 191.709839,174.322083 
	C188.352798,174.322083 185.303040,174.322083 181.997818,174.322083 
	C181.997818,186.238434 181.997818,197.832306 181.997314,210.408783 
z"/>
<path fill="#F4FBF7" opacity="1.000000" stroke="none" 
	d="
M98.734894,137.310669 
	C96.300674,142.210266 93.951614,146.687164 91.185768,151.958359 
	C92.779930,152.281830 95.103867,152.753357 97.764862,153.293289 
	C97.764862,155.300201 97.764862,157.886337 97.764862,160.439941 
	C88.644791,161.961273 86.536362,160.880066 83.293739,152.929169 
	C73.589577,154.299622 66.878418,150.096024 63.689663,140.887878 
	C60.291729,131.075684 60.878338,121.427742 67.730339,113.186356 
	C74.848679,104.624641 89.282524,106.278130 95.197601,115.720543 
	C99.360909,122.366531 99.303642,129.545700 98.734894,137.310669 
M88.779404,133.940735 
	C88.171638,129.424530 88.156891,124.702950 86.695190,120.482498 
	C86.008476,118.499695 82.579002,116.431084 80.313721,116.339035 
	C78.285362,116.256622 75.175644,118.366272 74.237167,120.321815 
	C71.030464,127.003731 71.016594,134.174484 74.319794,140.826309 
	C75.278221,142.756363 78.375603,144.681076 80.492973,144.681641 
	C82.612106,144.682205 85.176750,142.644257 86.711143,140.803757 
	C87.947021,139.321350 87.938026,136.801117 88.779404,133.940735 
z"/>
<path fill="#F8FDFA" opacity="1.000000" stroke="none" 
	d="
M227.000153,127.001053 
	C226.999924,120.870346 226.999924,115.239288 226.999924,109.180206 
	C235.194275,109.180206 243.130142,108.835609 251.017227,109.307129 
	C255.888931,109.598381 259.205902,113.008148 260.465729,117.700226 
	C261.809570,122.705200 261.691193,127.894264 257.269379,131.392960 
	C254.699356,133.426453 254.676956,135.026672 255.771011,137.666260 
	C257.653839,142.208893 259.209930,146.886963 260.891174,151.475525 
	C260.471466,151.679840 260.338196,151.794281 260.195892,151.806915 
	C250.600616,152.658188 250.600296,152.657578 247.104370,143.892654 
	C246.797165,143.122452 246.365433,142.374435 246.214035,141.574036 
	C245.300064,136.741837 242.574341,134.809952 237.255539,136.409256 
	C237.255539,141.167435 237.255539,146.232376 237.255539,151.648651 
	C233.735977,151.648651 230.680313,151.648651 227.000397,151.648651 
	C227.000397,143.676178 227.000397,135.588440 227.000153,127.001053 
M237.107040,127.172005 
	C240.431625,127.217102 243.887375,127.817497 247.026230,127.076202 
	C248.628265,126.697868 250.722351,123.867981 250.653641,122.227478 
	C250.585114,120.591530 248.354843,118.223251 246.600189,117.667862 
	C243.754715,116.767235 240.523712,117.084679 237.013535,116.859528 
	C237.013535,120.361450 237.013535,123.302628 237.107040,127.172005 
z"/>
<path fill="#F8FDFA" opacity="1.000000" stroke="none" 
	d="
M220.964661,127.310936 
	C221.200333,148.557190 210.770966,154.279663 185.283051,151.640503 
	C185.283051,137.620895 185.283051,123.567657 185.283051,109.175331 
	C191.983658,109.175331 198.637711,108.671440 205.182144,109.303253 
	C213.308426,110.087784 219.436768,117.416374 220.964661,127.310936 
M205.448212,118.737801 
	C202.179840,117.993546 198.911453,117.249290 195.370667,116.443001 
	C195.370667,126.208916 195.370667,135.045135 195.370667,143.859436 
	C203.533676,144.172409 207.766937,142.231491 209.610245,136.938477 
	C211.875854,130.432877 211.515076,124.253098 205.448212,118.737801 
z"/>
<path fill="#F6FCF8" opacity="1.000000" stroke="none" 
	d="
M315.497925,127.411545 
	C318.111603,135.647369 320.531586,143.530289 323.131165,151.998215 
	C319.963135,151.998215 317.121063,152.363968 314.454193,151.839203 
	C313.179016,151.588287 311.483856,149.765762 311.279083,148.452347 
	C310.569946,143.904037 308.296417,142.330521 303.827698,142.950806 
	C301.218933,143.312943 298.518799,143.016800 295.461121,143.016800 
	C294.503876,145.878754 293.537750,148.767197 292.520203,151.809387 
	C289.801788,151.809387 287.179352,151.809387 283.889587,151.809387 
	C288.424164,137.467667 292.872284,123.399330 297.366333,109.185684 
	C301.292633,109.185684 305.098358,109.185684 309.696899,109.185684 
	C311.498016,114.926689 313.401093,120.992676 315.497925,127.411545 
M304.255951,126.407974 
	C303.743988,124.856651 303.232056,123.305321 302.438873,120.901787 
	C300.827545,126.010750 299.468109,130.321060 298.036530,134.860184 
	C301.091736,134.860184 303.852600,134.860184 306.874207,134.860184 
	C306.049133,132.133575 305.290955,129.628098 304.255951,126.407974 
z"/>
<path fill="#F6FCF8" opacity="1.000000" stroke="none" 
	d="
M233.218307,190.158081 
	C235.005539,184.608139 236.714264,179.449829 238.464035,174.167633 
	C242.382767,174.167633 246.190369,174.167633 250.706833,174.167633 
	C255.076965,188.021591 259.523010,202.116150 264.107391,216.649261 
	C260.568115,216.649261 257.350586,216.649261 253.620529,216.649261 
	C252.526001,214.136841 251.866745,209.345779 249.847275,208.679901 
	C245.817398,207.351120 241.041122,208.286057 236.572998,208.278885 
	C232.702072,217.611023 232.702072,217.611023 224.979980,216.542007 
	C227.708908,207.849228 230.424347,199.199463 233.218307,190.158081 
M240.941330,193.548599 
	C240.355179,195.582275 239.769043,197.615952 239.122391,199.859558 
	C242.104248,199.859558 244.866226,199.859558 247.941956,199.859558 
	C246.499557,195.334885 245.132874,191.047745 243.498932,185.922226 
	C242.525024,188.810211 241.851151,190.808487 240.941330,193.548599 
z"/>
<path fill="#F6FCF8" opacity="1.000000" stroke="none" 
	d="
M114.636589,174.048462 
	C125.694450,173.945450 125.705475,173.941986 128.909668,184.144501 
	C132.269455,194.842468 135.605194,205.547989 139.080093,216.661713 
	C135.561172,216.661713 132.336685,216.661713 128.344391,216.661713 
	C127.688530,214.700348 127.456512,211.742310 125.880180,210.001831 
	C124.596268,208.584244 121.735458,208.348557 119.515442,208.089172 
	C116.900513,207.783676 114.222565,208.017563 111.676216,208.017563 
	C107.730751,217.595612 107.730751,217.595612 99.928177,216.542358 
	C104.352859,202.659225 108.753914,188.831696 113.193985,175.016708 
	C113.315384,174.638992 113.856934,174.396317 114.636589,174.048462 
M114.300880,198.884949 
	C117.039803,199.395401 119.778725,199.905853 123.182365,200.540192 
	C121.487343,195.254684 120.132545,191.030106 118.427589,185.713623 
	C116.915276,190.633636 115.763336,194.381241 114.300880,198.884949 
z"/>
<path fill="#F6FCF8" opacity="1.000000" stroke="none" 
	d="
M169.895523,115.963814 
	C170.589600,118.252625 171.239395,120.136536 171.833633,122.037811 
	C174.882965,131.794220 177.918015,141.555084 181.077621,151.698242 
	C177.509644,151.698242 174.267868,151.698242 170.332764,151.698242 
	C169.811890,139.512299 160.676804,143.383316 153.376373,143.081772 
	C152.427872,146.038818 151.532196,148.831146 150.596252,151.749054 
	C147.757828,151.749054 145.006485,151.749054 141.887253,151.749054 
	C146.429367,137.405548 150.863983,123.401497 155.284897,109.440720 
	C166.802811,107.811020 167.276871,108.012680 169.895523,115.963814 
M161.889984,124.981789 
	C161.477020,123.919533 161.064072,122.857269 160.375443,121.085892 
	C158.822311,126.010284 157.466034,130.310532 156.037766,134.838989 
	C159.132080,134.838989 161.882416,134.838989 164.768890,134.838989 
	C164.557114,134.001495 164.421768,133.365723 164.234985,132.745422 
	C163.526291,130.392014 162.800980,128.043610 161.889984,124.981789 
z"/>
<path fill="#F3FBF6" opacity="1.000000" stroke="none" 
	d="
M61.998955,197.802307 
	C61.986042,184.309677 65.756706,176.954559 74.752289,173.977448 
	C86.385986,170.127258 99.117279,175.698013 98.475105,190.632172 
	C95.551155,190.632172 92.605522,190.632172 89.247574,190.632172 
	C88.957527,189.684387 88.448593,188.489975 88.237633,187.245071 
	C87.574295,183.330658 84.764511,180.970596 81.399681,181.331070 
	C78.765984,181.613205 75.279060,183.705200 74.107239,185.987198 
	C70.868362,192.294693 71.094589,199.308655 74.201454,205.601532 
	C75.247253,207.719727 78.819862,209.473953 81.378990,209.685684 
	C83.477646,209.859314 87.253746,207.913284 87.740807,206.188156 
	C89.597565,199.611725 93.977722,200.753052 98.546837,201.456131 
	C99.078262,209.921158 92.660942,217.214554 84.133446,217.968323 
	C71.224716,219.109375 62.846180,211.647705 61.998955,197.802307 
z"/>
<path fill="#F8FDFA" opacity="1.000000" stroke="none" 
	d="
M104.987213,131.969086 
	C104.988068,124.172424 104.988068,116.870064 104.988068,109.282845 
	C108.375130,109.282845 111.433182,109.282845 115.010307,109.282845 
	C115.010307,118.327347 114.913361,127.276321 115.040741,136.222107 
	C115.144073,143.479507 120.075813,146.682709 126.719604,144.196915 
	C130.702789,142.706589 130.916809,139.385086 130.954880,136.057983 
	C131.055679,127.250732 130.989075,118.441551 130.989075,109.315819 
	C133.661423,109.315819 136.051361,109.315819 138.837952,109.315819 
	C138.837952,120.264854 138.903992,131.206573 138.763596,142.145630 
	C138.743561,143.706787 137.944977,145.384155 137.127289,146.786484 
	C134.004913,152.141266 124.199280,154.764297 115.753876,152.645584 
	C108.847847,150.913086 105.239326,146.334656 105.019653,138.960739 
	C104.955177,136.796539 104.994576,134.629242 104.987213,131.969086 
z"/>
<path fill="#F9FEFB" opacity="1.000000" stroke="none" 
	d="
M161.807953,201.010101 
	C158.717926,201.010361 156.091476,201.010361 153.159241,201.010361 
	C153.159241,206.364731 153.159241,211.310333 153.159241,216.628754 
	C149.791611,216.628754 146.730255,216.628754 143.324982,216.628754 
	C143.324982,202.742218 143.324982,188.680817 143.324982,174.242813 
	C150.891296,174.242813 158.529419,173.728516 166.062149,174.398758 
	C172.577042,174.978424 176.575104,181.786697 175.962540,189.407349 
	C175.406769,196.321457 170.231628,200.707138 161.807953,201.010101 
M158.230194,193.003357 
	C163.881210,192.391144 166.508957,190.274887 165.962646,186.776001 
	C165.337570,182.772675 161.390259,181.400955 153.237610,182.453583 
	C153.237610,185.822418 153.237610,189.217194 153.237610,193.003983 
	C154.747971,193.003983 156.040604,193.003983 158.230194,193.003357 
z"/>
<path fill="#F9FFFC" opacity="1.000000" stroke="none" 
	d="
M207.999207,196.007233 
	C207.999390,191.213165 207.999390,186.917236 207.999390,182.141037 
	C204.338791,182.141037 200.940918,182.141037 197.277039,182.141037 
	C197.277039,179.277634 197.277039,176.890213 197.277039,174.247772 
	C207.769394,174.247772 218.146729,174.247772 228.765427,174.247772 
	C228.765427,176.678635 228.765427,178.949890 228.765427,181.702911 
	C225.494751,181.702911 222.103043,181.702911 218.248856,181.702911 
	C218.248856,193.541122 218.248856,204.917618 218.248856,216.646286 
	C214.753967,216.646286 211.701797,216.646286 207.999023,216.646286 
	C207.999023,210.003021 207.999023,203.254196 207.999207,196.007233 
z"/>
<path fill="#FAFFFC" opacity="1.000000" stroke="none" 
	d="
M268.003113,206.966278 
	C268.003479,195.852478 268.003479,185.232529 268.003479,174.307434 
	C271.366211,174.307434 274.418030,174.307434 277.962524,174.307434 
	C277.962524,185.771820 277.962524,197.157135 277.962524,209.015915 
	C283.832428,209.015915 289.238892,209.015915 294.810272,209.015915 
	C294.810272,211.776764 294.810272,214.055496 294.810272,216.669281 
	C286.090057,216.669281 277.364838,216.669281 268.002716,216.669281 
	C268.002716,213.653732 268.002716,210.556946 268.003113,206.966278 
z"/>
<path fill="#FBFFFD" opacity="1.000000" stroke="none" 
	d="
M278.997375,138.988525 
	C278.997406,143.444687 278.997406,147.402817 278.997406,151.677979 
	C275.672424,151.677979 272.625854,151.677979 269.285034,151.677979 
	C269.285034,137.653290 269.285034,123.637779 269.285034,109.311127 
	C272.316864,109.311127 275.367126,109.311127 278.997314,109.311127 
	C278.997314,119.035797 278.997314,128.763153 278.997375,138.988525 
z"/>
<path fill="#F9FFFC" opacity="1.000000" stroke="none" 
	d="
M181.997559,209.917480 
	C181.997818,197.832306 181.997818,186.238434 181.997818,174.322083 
	C185.303040,174.322083 188.352798,174.322083 191.709839,174.322083 
	C191.709839,188.318314 191.709839,202.337769 191.709839,216.680771 
	C188.696121,216.680771 185.644119,216.680771 181.997314,216.680771 
	C181.997314,214.602844 181.997314,212.505814 181.997559,209.917480 
z"/>
<path fill="#237142" opacity="1.000000" stroke="none" 
	d="
M88.630379,134.341034 
	C87.938026,136.801117 87.947021,139.321350 86.711143,140.803757 
	C85.176750,142.644257 82.612106,144.682205 80.492973,144.681641 
	C78.375603,144.681076 75.278221,142.756363 74.319794,140.826309 
	C71.016594,134.174484 71.030464,127.003731 74.237167,120.321815 
	C75.175644,118.366272 78.285362,116.256622 80.313721,116.339035 
	C82.579002,116.431084 86.008476,118.499695 86.695190,120.482498 
	C88.156891,124.702950 88.171638,129.424530 88.630379,134.341034 
z"/>
<path fill="#247044" opacity="1.000000" stroke="none" 
	d="
M237.060287,126.707901 
	C237.013535,123.302628 237.013535,120.361450 237.013535,116.859528 
	C240.523712,117.084679 243.754715,116.767235 246.600189,117.667862 
	C248.354843,118.223251 250.585114,120.591530 250.653641,122.227478 
	C250.722351,123.867981 248.628265,126.697868 247.026230,127.076202 
	C243.887375,127.817497 240.431625,127.217102 237.060287,126.707901 
z"/>
<path fill="#237142" opacity="1.000000" stroke="none" 
	d="
M205.775803,118.953552 
	C211.515076,124.253098 211.875854,130.432877 209.610245,136.938477 
	C207.766937,142.231491 203.533676,144.172409 195.370667,143.859436 
	C195.370667,135.045135 195.370667,126.208916 195.370667,116.443001 
	C198.911453,117.249290 202.179840,117.993546 205.775803,118.953552 
z"/>
<path fill="#31734C" opacity="1.000000" stroke="none" 
	d="
M304.394348,126.765297 
	C305.290955,129.628098 306.049133,132.133575 306.874207,134.860184 
	C303.852600,134.860184 301.091736,134.860184 298.036530,134.860184 
	C299.468109,130.321060 300.827545,126.010750 302.438873,120.901787 
	C303.232056,123.305321 303.743988,124.856651 304.394348,126.765297 
z"/>
<path fill="#31734C" opacity="1.000000" stroke="none" 
	d="
M241.059296,193.177673 
	C241.851151,190.808487 242.525024,188.810211 243.498932,185.922226 
	C245.132874,191.047745 246.499557,195.334885 247.941956,199.859558 
	C244.866226,199.859558 242.104248,199.859558 239.122391,199.859558 
	C239.769043,197.615952 240.355179,195.582275 241.059296,193.177673 
z"/>
<path fill="#31734C" opacity="1.000000" stroke="none" 
	d="
M114.456131,198.506897 
	C115.763336,194.381241 116.915276,190.633636 118.427589,185.713623 
	C120.132545,191.030106 121.487343,195.254684 123.182365,200.540192 
	C119.778725,199.905853 117.039803,199.395401 114.456131,198.506897 
z"/>
<path fill="#31734C" opacity="1.000000" stroke="none" 
	d="
M161.985931,125.337570 
	C162.800980,128.043610 163.526291,130.392014 164.234985,132.745422 
	C164.421768,133.365723 164.557114,134.001495 164.768890,134.838989 
	C161.882416,134.838989 159.132080,134.838989 156.037766,134.838989 
	C157.466034,130.310532 158.822311,126.010284 160.375443,121.085892 
	C161.064072,122.857269 161.477020,123.919533 161.985931,125.337570 
z"/>
<path fill="#247044" opacity="1.000000" stroke="none" 
	d="
M157.781708,193.003662 
	C156.040604,193.003983 154.747971,193.003983 153.237610,193.003983 
	C153.237610,189.217194 153.237610,185.822418 153.237610,182.453583 
	C161.390259,181.400955 165.337570,182.772675 165.962646,186.776001 
	C166.508957,190.274887 163.881210,192.391144 157.781708,193.003662 
z"/>
</svg>